<!--?xml version="1.0" encoding="utf-8"?-->
<!-- Generator: Adobe Illustrator 18.0.0, SVG Export Plug-In . SVG Version: 6.00 Build 0)  -->

<svg version="1.1" id="_x32_" xmlns="http://www.w3.org/2000/svg" xmlns:xlink="http://www.w3.org/1999/xlink" x="0px" y="0px" viewBox="0 0 512 512" style="width: 256px; height: 256px; opacity: 1;" xml:space="preserve">
<style type="text/css">
	.st0{fill:#4B4B4B;}
</style>
<g>
	<path class="st0" d="M498.58,13.649H17.193C7.714,13.649,0,21.359,0,30.839v310.268c0,9.697,7.888,17.585,17.586,17.585h476.831
		c9.696,0,17.584-7.888,17.584-17.585V27.069C512,19.666,505.981,13.649,498.58,13.649z M34.094,181.635V48.626h106.407
		L34.094,181.635z" style="fill: rgb(75, 75, 75);"></path>
	<polygon class="st0" points="186.574,375.917 178.791,445.754 333.211,445.754 325.428,375.917 	" style="fill: rgb(75, 75, 75);"></polygon>
	<path class="st0" d="M384.189,463.37H127.813c-15.68,0-28.434,12.756-28.434,28.432v6.549h313.242v-6.549
		C412.621,476.127,399.867,463.37,384.189,463.37z" style="fill: rgb(75, 75, 75);"></path>
</g>
</svg>
